<?xml version="1.0" encoding="iso-8859-1"?>
<!-- Generator: Adobe Illustrator 19.0.1, SVG Export Plug-In . SVG Version: 6.00 Build 0)  -->
<svg version="1.1" xmlns="http://www.w3.org/2000/svg" xmlns:xlink="http://www.w3.org/1999/xlink" x="0px" y="0px"
	 viewBox="0 0 128 128" style="enable-background:new 0 0 128 128;" xml:space="preserve">
<g id="_x39_">
	<path id="icon_7_" style="fill:#191919;" d="M118.448,123.224H9.552c-5.267,0-9.552-4.285-9.552-9.552V14.328
		c0-5.267,4.285-9.552,9.552-9.552h108.896c5.267,0,9.552,4.285,9.552,9.552v99.343C128,118.938,123.715,123.224,118.448,123.224z
		 M9.552,12.418c-1.054,0-1.91,0.857-1.91,1.91v99.343c0,1.053,0.856,1.91,1.91,1.91h108.896c1.054,0,1.91-0.857,1.91-1.91V14.328
		c0-1.053-0.856-1.91-1.91-1.91H9.552z M100.299,64L41.075,31.284v65.433L100.299,64z"/>
</g>
<g id="Layer_1">
</g>
</svg>
